<svg xmlns="http://www.w3.org/2000/svg" version="1.1" xmlns:xlink="http://www.w3.org/1999/xlink" xmlns:svgjs="http://svgjs.dev/svgjs" width="250" height="250"><svg id="SvgjsSvg1011" xmlns="http://www.w3.org/2000/svg" xmlns:xlink="http://www.w3.org/1999/xlink" viewBox="0 0 250 250">
  <defs>
    <style>
      .cls-1 {
        fill: none;
      }

      .cls-2 {
        fill: #ff5293;
      }

      .cls-3 {
        clip-path: url(#clippath-1);
      }

      .cls-4 {
        fill: #fff;
      }

      .cls-5 {
        fill: #3c224c;
      }

			@media (prefers-color-scheme: dark) {
				.cls-4 {
					fill: #3c224c;
				}
				
				.cls-5 {
					fill: #fff;
				}
			}

      .cls-6 {
        clip-path: url(#clippath);
      }
    </style>
    <clipPath id="SvgjsClipPath1010">
      <rect class="cls-1" width="250" height="250"></rect>
    </clipPath>
    <clipPath id="SvgjsClipPath1009">
      <rect class="cls-1" width="250" height="250"></rect>
    </clipPath>
  </defs>
  <g id="SvgjsG1008" data-name="Layer_1">
    <g class="cls-6">
      <g class="cls-3">
        <path class="cls-5" d="M0,125C0,55.96,55.96,0,125,0s125,55.96,125,125-55.96,125-125,125S0,194.04,0,125"></path>
        <path class="cls-2" d="M116.9,136.96l21.66-6.49c9.59-2.99,15.17-11.42,15.17-21.11,0-10.8-8.92-21.34-22.32-21.34l-31.82.05v17.71s32.33,0,32.37,0c2.16,0,3.91,1.72,3.91,3.88,0,1.86-1.3,3.41-3.04,3.81l-33.24,9.92.03,38.58h52.48v-17.71h-35.19v-7.29Z"></path>
        <path class="cls-2" d="M180.82,113.01l21.66,6.49c9.59,2.99,15.17,11.42,15.17,21.11,0,10.8-8.92,21.34-22.32,21.34l-31.82-.05v-17.71s32.33,0,32.37,0c2.16,0,3.91-1.72,3.91-3.87,0-1.86-1.3-3.41-3.04-3.81l-33.24-9.92.03-38.58h52.48v17.71h-35.19v7.29Z"></path>
        <path class="cls-4" d="M83.83,126.76c-3.01-3.34-7.61-5.74-13.78-7.19l-11.11-2.72c-3.27-.72-5.59-1.78-6.97-3.16-1.38-1.38-2.07-3.27-2.07-5.66,0-2.69.94-4.87,2.83-6.54,1.89-1.67,4.54-2.51,7.95-2.51,3.7,0,6.57,1.04,8.61,3.11,1.07,1.09,1.92,2.32,2.56,3.7h15.92c-1.33-5.79-4.05-10.37-8.19-13.72-4.54-3.67-10.69-5.5-18.47-5.5-5.23,0-9.84.91-13.84,2.72-4,1.82-7.1,4.41-9.32,7.79-2.22,3.38-3.32,7.32-3.32,11.82,0,6.17,1.65,10.91,4.96,14.22,3.3,3.31,8.08,5.68,14.33,7.14l11.11,2.61c2.98.73,5.08,1.76,6.32,3.11,1.23,1.34,1.85,3.21,1.85,5.61,0,2.69-1.04,4.83-3.11,6.43-2.07,1.6-4.89,2.4-8.44,2.4-4,0-7.12-.96-9.37-2.89-1.71-1.46-3.02-3.42-3.93-5.86h-15.99c1.24,7.15,4.31,12.47,9.19,15.94,4.9,3.49,11.42,5.23,19.56,5.23s14.89-1.92,19.83-5.77c4.94-3.85,7.41-9.26,7.41-16.23,0-6.03-1.51-10.71-4.52-14.05"></path>
      </g>
    </g>
  </g>
</svg><style>@media (prefers-color-scheme: light) { :root { filter: none; } }
@media (prefers-color-scheme: dark) { :root { filter: none; } }
</style></svg>