<svg width="24" height="24" viewBox="0 0 24 24" fill="none" xmlns="http://www.w3.org/2000/svg">
<path d="M23.73 11.3804V13.3004C23.66 13.7304 23.6 14.1704 23.51 14.5904C22.63 18.5404 20.36 21.3804 16.67 23.0604C15.67 23.5104 14.62 23.8104 13.49 23.9104V14.7704C14.33 14.7704 15.13 14.7704 15.93 14.7704C16.06 14.7704 16.27 14.6504 16.29 14.5604C16.44 13.5704 16.56 12.5704 16.69 11.5104H13.5C13.5 10.5904 13.47 9.74035 13.51 8.89035C13.53 8.38035 13.88 8.03035 14.4 7.93035C14.73 7.87035 15.06 7.85035 15.4 7.84035C15.85 7.83035 16.3 7.84035 16.75 7.84035V4.84035C15.7 4.84035 14.67 4.78035 13.66 4.85035C11.88 4.99035 10.63 6.01035 10.28 7.73035C10.07 8.76035 10.12 9.84035 10.08 10.9104C10.06 11.5204 10.08 11.5204 9.46 11.5204C8.74 11.5204 8.01 11.5204 7.3 11.5204V14.8104H10.06V23.8404C9.88 23.8104 9.73 23.7904 9.59 23.7604C7.45 23.3104 5.61 22.3004 4 20.8304C0.160001 17.3204 -0.799997 11.1604 1.81 6.67035C4.32 2.33035 8.78 0.0603528 13.74 0.800353C18.16 1.46035 21.24 3.98035 22.91 8.12035C23.33 9.15035 23.47 10.2904 23.74 11.3804H23.73Z" fill="#373D5C"/>
</svg>
