<svg width="25" height="24" viewBox="0 0 25 24" fill="none" xmlns="http://www.w3.org/2000/svg">
<path d="M12.69 23.3895C11.24 23.3795 10.09 23.3795 8.94002 23.3595C8.31002 23.3495 7.68002 23.3195 7.05002 23.2795C6.18002 23.2195 5.33001 23.0395 4.53001 22.6895C2.98001 22.0095 1.90002 20.8795 1.29002 19.3095C1.06002 18.7095 0.920012 18.0995 0.840012 17.4595C0.790012 17.0195 0.760015 16.5795 0.750015 16.1395C0.730015 15.2895 0.700012 14.4295 0.700012 13.5795C0.700012 12.3195 0.700012 11.0695 0.700012 9.80953C0.700012 9.25953 0.700016 8.71953 0.720016 8.16953C0.730016 7.63953 0.750016 7.10953 0.790016 6.58953C0.850016 5.62953 1.02002 4.69953 1.41002 3.81953C2.06002 2.33953 3.13002 1.28953 4.62002 0.669531C5.35002 0.369531 6.11001 0.199531 6.89001 0.129531C7.92001 0.0395312 8.95002 0.0195312 9.98002 0.0195312C11.83 0.0195312 13.68 0.0195312 15.52 0.0195312C16.25 0.0195312 16.98 0.0595313 17.71 0.109531C18.58 0.169531 19.43 0.349531 20.24 0.699531C21.8 1.37953 22.88 2.51953 23.49 4.09953C23.73 4.72953 23.87 5.38953 23.95 6.05953C24 6.54953 24.02 7.04953 24.04 7.53953C24.08 8.51953 24.08 9.49953 24.08 10.4795C24.08 11.8095 24.08 13.1395 24.08 14.4695C24.08 15.1995 24.05 15.9295 24.01 16.6695C23.97 17.4295 23.87 18.1695 23.64 18.8995C23.41 19.6395 23.07 20.3295 22.58 20.9295C21.86 21.8195 20.97 22.4595 19.89 22.8395C19.25 23.0695 18.59 23.2095 17.91 23.2595C17.35 23.2995 16.78 23.3395 16.22 23.3495C14.95 23.3695 13.68 23.3795 12.71 23.3895H12.69ZM2.81001 11.6795C2.81001 12.0395 2.81001 12.4095 2.81001 12.7695C2.81001 13.8295 2.81001 14.8795 2.85001 15.9395C2.87001 16.3795 2.89002 16.8195 2.94002 17.2495C3.01002 17.7695 3.13001 18.2695 3.34001 18.7495C3.71001 19.5895 4.31001 20.2195 5.13001 20.6395C5.73001 20.9495 6.38002 21.0995 7.05002 21.1495C7.55002 21.1895 8.04002 21.2195 8.54002 21.2295C9.21002 21.2495 9.88002 21.2595 10.55 21.2595C12.23 21.2595 13.9 21.2595 15.58 21.2495C16.29 21.2495 17.01 21.2195 17.72 21.1495C18.26 21.0995 18.78 20.9895 19.29 20.7895C20.22 20.4195 20.92 19.7895 21.36 18.8895C21.66 18.2795 21.81 17.6295 21.86 16.9595C21.9 16.4295 21.93 15.9095 21.94 15.3795C21.96 14.7095 21.97 14.0295 21.97 13.3595C21.97 12.1095 21.97 10.8695 21.97 9.61953C21.97 8.99953 21.95 8.38953 21.94 7.76953C21.93 7.24953 21.91 6.72953 21.85 6.20953C21.79 5.68953 21.68 5.17953 21.47 4.68953C21.1 3.78953 20.47 3.11953 19.6 2.68953C19.01 2.39953 18.38 2.24953 17.74 2.19953C17.19 2.14953 16.64 2.12953 16.09 2.10953C15.38 2.08953 14.67 2.07953 13.96 2.07953C11.87 2.07953 9.78002 2.03953 7.69002 2.13953C7.20002 2.15953 6.70002 2.20953 6.22002 2.31953C5.73002 2.42953 5.25002 2.59953 4.83002 2.86953C4.05002 3.36953 3.51001 4.04953 3.21001 4.92953C3.01001 5.50953 2.92001 6.10953 2.89001 6.70953C2.86001 7.34953 2.83001 7.98953 2.82001 8.63953C2.81001 9.63953 2.82001 10.6495 2.82001 11.6495L2.81001 11.6795Z" fill="#373D5C"/>
<path d="M12.38 17.6897C9.06 17.6697 6.39 14.9997 6.38 11.6797C6.38 8.35972 9.08001 5.66972 12.4 5.67972C15.71 5.67972 18.39 8.37971 18.39 11.6897C18.39 15.0097 15.7 17.6997 12.38 17.6897ZM8.49001 11.6697C8.48001 13.8297 10.24 15.5697 12.37 15.5797C14.52 15.5797 16.27 13.8497 16.28 11.6997C16.29 9.54972 14.55 7.79972 12.4 7.78972C10.24 7.77972 8.49001 9.50972 8.48001 11.6697H8.49001Z" fill="#373D5C"/>
<path d="M18.64 4.03918C19.41 4.03918 20.04 4.67918 20.03 5.43918C20.03 6.21918 19.39 6.84918 18.61 6.84918C17.83 6.84918 17.21 6.20918 17.22 5.41918C17.22 4.65918 17.86 4.02918 18.63 4.03918H18.64Z" fill="#373D5C"/>
</svg>
