<svg width="24" height="24" viewBox="0 0 24 24" fill="none" xmlns="http://www.w3.org/2000/svg">
<path d="M21.42 23.5004H2.04999C2.04999 23.5004 1.99999 23.4704 1.96999 23.4604C0.799986 23.2104 0.039978 22.2904 0.039978 21.0904C0.039978 14.9004 0.039978 8.71035 0.039978 2.52035C0.039978 2.31035 0.0599854 2.09035 0.109985 1.89035C0.379985 0.810351 1.30999 0.110352 2.46999 0.110352C8.63999 0.110352 14.82 0.110352 20.99 0.110352C21.06 0.110352 21.13 0.110352 21.2 0.110352C21.86 0.150352 22.4 0.420352 22.84 0.910352C23.16 1.26035 23.31 1.68035 23.43 2.12035V21.4904C23.43 21.4904 23.4 21.5604 23.39 21.5904C23.28 22.1504 23 22.6003 22.56 22.9704C22.23 23.2504 21.83 23.3904 21.42 23.5004ZM19.9 19.9804C19.9 19.9104 19.9 19.8703 19.9 19.8204C19.9 17.6604 19.9 15.5004 19.9 13.3304C19.9 11.9004 19.27 10.7704 18.11 9.96035C16.86 9.09035 15.31 8.91035 13.93 9.86035C13.56 10.1104 13.25 10.4404 12.9 10.7404V9.47035H9.40999V19.9604H12.9V19.6804C12.9 17.7904 12.9 15.9004 12.9 14.0204C12.9 13.8704 12.9 13.7204 12.92 13.5604C13.02 12.5504 14.15 11.8004 15.12 12.1004C15.93 12.3504 16.4 13.0104 16.41 13.9104C16.41 15.8404 16.41 17.7604 16.41 19.6904V19.9604H19.91L19.9 19.9804ZM7.03998 19.9804V9.49035H3.56999V19.9804H7.03998ZM7.39998 5.38035C7.39998 4.22035 6.45999 3.27035 5.29999 3.27035C4.14999 3.27035 3.18998 4.23035 3.19998 5.38035C3.19998 6.53035 4.13998 7.46035 5.28998 7.47035C6.44998 7.47035 7.39998 6.54035 7.39998 5.38035Z" fill="#373D5C"/>
</svg>
