<svg width="24" height="24" viewBox="0 0 24 24" fill="none" xmlns="http://www.w3.org/2000/svg">
<path d="M12.3 23.72H11.06C11.06 23.72 11 23.71 10.97 23.7C10.52 23.66 10.06 23.61 9.62 23.53C8.47 23.32 7.37 22.96 6.34 22.42C4.06 21.23 2.34 19.47 1.19 17.17C0.52 15.81 0.14 14.37 0.03 12.85C-0.01 12.34 -0.01 11.83 0.03 11.33C0.06 10.74 0.14 10.15 0.27 9.57C0.77 7.25 1.87 5.26 3.58 3.62C5.73 1.53 8.32 0.44 11.32 0.32C12.14 0.29 12.96 0.35 13.77 0.5C14.93 0.71 16.03 1.08 17.07 1.62C19.37 2.82 21.09 4.59 22.23 6.92C22.91 8.3 23.29 9.77 23.37 11.31C23.37 11.33 23.37 11.36 23.39 11.38V12.65C23.39 12.65 23.38 12.68 23.38 12.69C23.38 12.78 23.38 12.87 23.38 12.96C23.33 13.53 23.25 14.1 23.12 14.66C22.6 16.86 21.54 18.76 19.93 20.35C18.86 21.41 17.63 22.23 16.24 22.81C15.08 23.3 13.87 23.59 12.61 23.68C12.51 23.68 12.42 23.7 12.32 23.71L12.3 23.72ZM9.04 5.79H5.07C6.79 8.09 8.5 10.37 10.21 12.66C8.49 14.52 6.77 16.38 5.04 18.25H5.15C5.47 18.25 5.78 18.25 6.1 18.25C6.18 18.25 6.23 18.23 6.28 18.17C7.74 16.59 9.2 15.01 10.66 13.43C10.68 13.41 10.7 13.38 10.72 13.35C10.75 13.39 10.77 13.42 10.79 13.44C10.89 13.58 11 13.71 11.1 13.85C12.18 15.29 13.25 16.73 14.33 18.17C14.37 18.22 14.4 18.25 14.47 18.25C15.73 18.25 17 18.25 18.26 18.25C18.29 18.25 18.31 18.25 18.35 18.25C16.54 15.82 14.73 13.41 12.92 11C14.52 9.27 16.11 7.55 17.71 5.83C17.71 5.83 17.69 5.83 17.68 5.83C17.33 5.83 16.98 5.83 16.62 5.83C16.58 5.83 16.55 5.84 16.52 5.87C16.51 5.89 16.49 5.9 16.48 5.92C15.14 7.36 13.81 8.81 12.47 10.25C12.45 10.27 12.43 10.3 12.4 10.34C11.27 8.83 10.15 7.33 9.03 5.83L9.04 5.79Z" fill="#373D5C"/>
<path d="M6.79999 6.65039C6.79999 6.65039 6.83999 6.71039 6.85999 6.74039C8.09999 8.40039 9.34999 10.0704 10.59 11.7304C11.98 13.5904 13.37 15.4504 14.76 17.3104C14.81 17.3804 14.86 17.4004 14.94 17.4004C15.47 17.4004 15.99 17.4004 16.52 17.4004H16.64C13.95 13.8104 11.28 10.2304 8.60999 6.66039H6.79999V6.65039Z" fill="#373D5C"/>
<path d="M6.79999 6.64965H8.60999C11.28 10.2196 13.96 13.7996 16.64 17.3896H16.52C15.99 17.3896 15.47 17.3896 14.94 17.3896C14.86 17.3896 14.81 17.3696 14.76 17.2996C13.37 15.4396 11.98 13.5796 10.59 11.7196C9.34999 10.0596 8.09999 8.38965 6.85999 6.72965C6.83999 6.70965 6.81999 6.67965 6.79999 6.63965V6.64965Z" fill="#373D5C"/>
</svg>
