<svg xmlns="http://www.w3.org/2000/svg" fill="none" viewBox="0 0 93 45"><path stroke="#373D5C" stroke-linecap="round" stroke-linejoin="round" stroke-width="2" d="M53.6 27.98 43.9 3.1"/><path fill="#7997FF" d="M33.9 40.51a12.13 12.13 0 1 0 0-24.25 12.13 12.13 0 0 0 0 24.25Zm42.99 0a12.13 12.13 0 1 0 0-24.25 12.13 12.13 0 0 0 0 24.25Z"/><path stroke="#373D5C" stroke-linecap="round" stroke-linejoin="round" stroke-width="2" d="M66.15 8.82H46.28l-12.46 19.5H53.7l12.46-19.5Zm10.78 19.51-9.6-19.51V1h5.7M47.71 2.9h-6.07M14.92 34.67h-9.6m6.47-8.1H1.09m13.47-8.11H8.39m48.57 24.66h34.18m-75.88 0h29.96"/></svg>