<svg xmlns="http://www.w3.org/2000/svg" fill="none" viewBox="0 0 36 73"><path stroke="#373D5C" stroke-linecap="round" stroke-linejoin="round" stroke-width="2" d="M25.34 66.76H10.3a2.59 2.59 0 0 1-2.6-2.59v-.05a2.6 2.6 0 0 1 2.6-2.6h15.04a2.6 2.6 0 0 1 2.6 2.6v.05a2.6 2.6 0 0 1-2.6 2.6Z"/><path stroke="#373D5C" stroke-linecap="round" stroke-linejoin="round" stroke-width="2" d="M22.4 66.76h-9.14a2.59 2.59 0 0 0-2.6 2.6v.05a2.6 2.6 0 0 0 2.6 2.59h9.13a2.6 2.6 0 0 0 2.6-2.6v-.04a2.6 2.6 0 0 0-2.6-2.6ZM18.03 7.98V1m11.59 10.33 4.48-5.35M6.44 11.33 1.96 5.98"/><path fill="#FF86FF" d="M24.9 57.55c1 0 1.9-.66 2.16-1.62.74-2.67 2.1-5.71 4.04-7.66a13.86 13.86 0 0 0 4.43-10.34c0-10.96-9.96-19.6-21.32-17.36A17.56 17.56 0 0 0 .16 39.4c.21 2.63 1.15 5.65 4.37 8.88 1.72 1.71 3.22 4.93 4.02 7.66a2.26 2.26 0 0 0 2.18 1.62h14.16v-.01Z"/><path stroke="#373D5C" stroke-linecap="round" stroke-linejoin="round" stroke-width="2" d="M7.1 36.64c-.05-3.7 2.9-7.75 6.86-8.79"/></svg>