<svg xmlns="http://www.w3.org/2000/svg" fill="none" viewBox="0 0 55 61"><path fill="#F7F9FD" d="M48.66 30.41 36.9 2.83l-9.6.96L3.59 3.5l-2.5 26.72 17.27 17.26a5.63 5.63 0 1 0 7.96-7.97l3.99 3.99a5.63 5.63 0 1 0 7.96-7.97l1.33 1.33a5.63 5.63 0 0 0 9.05-6.46v.01Z" opacity=".7"/><path stroke="#373D5C" stroke-linecap="round" stroke-linejoin="round" stroke-width="2" d="m25 38.2 5.3 5.3a5.63 5.63 0 1 0 7.97-7.96"/><path stroke="#373D5C" stroke-linecap="round" stroke-linejoin="round" stroke-width="2" d="m32.96 30.23 6.64 6.64a5.63 5.63 0 0 0 9.05-6.46"/><path fill="#FF86FF" d="M54.22 30.23H48.9l-.25.19a5.63 5.63 0 0 0-1.08-1.52l-10.3-10.3a7.97 7.97 0 0 0-11.27 0l-2.33 2.33a5.63 5.63 0 1 1-7.97-7.97l7.46-7.46a15.37 15.37 0 0 1 18.75-2.32l1.25.75a5.3 5.3 0 0 0 3.78.66l4.62-.93 2.66 26.57h-.01Z"/><path stroke="#373D5C" stroke-linecap="round" stroke-linejoin="round" stroke-width="2" d="M3.75 1 1.09 30.23l17.27 17.26a5.63 5.63 0 1 0 7.96-7.97M3.75 3.66H25M12.6 50.01l.04.04c2.55 3.2 7.16 5.23 12.01 5.29m-12.47.36.03.03c2.48 2.45 6.86 4.07 11.43 4.22"/></svg>