<svg xmlns="http://www.w3.org/2000/svg" fill="none" viewBox="0 0 1454 218"><path fill="#FF5294" d="m1167.32 143.44 61.63-18.46c27.28-8.51 43.16-32.5 43.16-60.09 0-30.74-25.38-60.73-63.52-60.73l-90.53.15V54.7h92.1c6.14 0 11.12 4.88 11.12 11.02 0 5.3-3.69 9.7-8.64 10.83l-94.58 28.24.07 109.8h149.34v-50.4h-100.15v-20.75Zm181.9-68.14 61.63 18.47c27.28 8.5 43.15 32.49 43.15 60.08 0 30.74-25.38 60.73-63.52 60.73l-90.53-.15v-50.39h92.11c6.14 0 11.11-4.88 11.11-11.02 0-5.29-3.69-9.7-8.63-10.83l-94.59-28.24.07-109.79h149.34v50.4h-100.14V75.3Z"/><path fill="#3D214D" d="M214.52 197.85c-12.92-13.44-19.37-34.42-19.37-62.94V4.07h42.16v129.6c0 16.33 2.79 28.32 8.37 35.96 5.58 7.65 14.26 11.47 26.04 11.47 12.4 0 21.23-3.92 26.5-11.78 5.28-7.85 7.91-19.73 7.91-35.65V4.07h42.16V134.9c0 28.94-6.36 50.02-19.06 63.25-12.71 13.23-31.89 19.84-57.51 19.84-25.22 0-44.28-6.72-57.2-20.15ZM385.8 4.07h82.77c23.56 0 41.44 5.53 53.63 16.59 12.2 11.06 18.3 28.36 18.3 51.93 0 22.94-6.2 40.2-18.6 51.78-12.4 11.57-30.08 17.36-53.02 17.36h-40.92v73.17H385.8V4.07Zm104 93.32c5.69-5.16 8.53-13.33 8.53-24.5 0-11.77-2.94-20.04-8.83-24.8-5.9-4.75-14.31-7.13-25.27-7.13h-36.27v64.18h36.27c11.37 0 19.89-2.58 25.58-7.75Zm82-93.32h82.77c23.57 0 41.44 5.53 53.63 16.59 12.2 11.06 18.3 28.36 18.3 51.93 0 22.94-6.2 40.2-18.6 51.78-12.4 11.57-30.08 17.36-53.01 17.36h-40.93v73.17H571.8V4.07Zm104 93.32c5.69-5.16 8.54-13.33 8.54-24.5 0-11.77-2.95-20.04-8.84-24.8-5.89-4.75-14.31-7.13-25.27-7.13h-36.27v64.18h36.27c11.37 0 19.9-2.58 25.58-7.75Zm85.1-93.32h42.16v171.45H906.3v39.38H760.9V4.07Zm215.14 134.25L908.77 4.07h46.5l53.02 114.1h-20.77l53.01-114.1h44.95l-66.96 134.25v76.58h-42.47v-76.58ZM107.26 93.94 75.64 86.2c-9.3-2.06-15.92-5.06-19.84-8.99-3.93-3.92-5.89-9.3-5.89-16.12 0-7.65 2.68-13.85 8.06-18.6 5.37-4.76 12.92-7.14 22.63-7.14 10.54 0 18.7 2.95 24.5 8.84a37.93 37.93 0 0 1 7.29 10.52h45.3c-3.79-16.48-11.52-29.52-23.3-39.04C121.47 5.22 103.95 0 81.84 0c-14.88 0-28 2.59-39.37 7.75-11.37 5.17-20.2 12.56-26.5 22.17C9.66 39.53 6.5 50.75 6.5 63.56c0 17.57 4.7 31.06 14.1 40.46 9.4 9.4 23 16.18 40.77 20.3L93 131.78c8.47 2.07 14.47 5.01 17.98 8.84 3.51 3.82 5.27 9.14 5.27 15.96 0 7.65-2.94 13.75-8.83 18.3-5.9 4.54-13.9 6.82-24.03 6.82-11.37 0-20.26-2.74-26.66-8.22-6.4-5.47-10.85-13.38-13.33-23.72L0 156.57c3.51 20.47 12.25 35.66 26.2 45.58 13.95 9.92 32.5 14.88 55.64 14.88 23.56 0 42.37-5.47 56.42-16.43 14.06-10.95 21.08-26.35 21.08-46.2 0-17.15-4.29-30.48-12.86-40-8.58-9.5-21.65-16.32-39.22-20.46Z"/></svg>