<svg xmlns="http://www.w3.org/2000/svg" fill="none" viewBox="0 0 60 59"><path fill="#7997FF" d="M24.5 38.29a5.3 5.3 0 0 0-3.81-3.81l-16.27-4.2a1.33 1.33 0 0 1 0-2.55l16.27-4.2a5.3 5.3 0 0 0 3.8-3.8l4.2-16.28c.2-.7.92-1.11 1.63-.92.44.13.8.48.92.92l4.2 16.27a5.3 5.3 0 0 0 3.8 3.81l16.27 4.2c.7.19 1.12.92.93 1.63-.13.45-.48.8-.93.93l-16.27 4.19a5.3 5.3 0 0 0-3.8 3.8l-4.2 16.28c-.2.7-.93 1.11-1.63.92-.45-.12-.8-.48-.92-.92l-4.2-16.27Z"/><path stroke="#373D5C" stroke-linecap="round" stroke-linejoin="round" stroke-width="2" d="M43.5 10.13 48.79 1m-.75 14.72 9.88-3.68M15.51 47.77l-5.27 9.13m.74-14.72-9.89 3.68m47.86-2.28 9.13 5.27m-14.72-.73L47.05 58M11.32 15.58 2.2 10.31m14.71.73-3.68-9.87"/></svg>